<svg  version="1.0"  id="Layer_1" xmlns="http://www.w3.org/2000/svg"   xmlns:xlink="http://www.w3.org/1999/xlink" x="0px" y="0px"  viewBox="-235.1 -325.1 612 792" style="enable-background:new -235.1 -325.1 612 792;" xml:space="preserve">
<path transform="translate(0.0,0.0)" style="fill:#ffffff;stroke-width:1;stroke:#000000;stroke-opacity:1" d="M -7.2270074,0.42561778 -7.2267237,0.42562461 -7.1843204,0.42578095 -7.1206508,0.42519498 -7.0480247,1.3519794 -6.876688,2.0914001 -6.5388432,2.9629786 -6.2376709,3.6536808 -5.7244473,4.4336548 -5.2715945,5.032094 -4.5905738,5.6744394 -4.0137916,6.150671 -3.2006154,6.6184807 -2.5323,6.9493041 -1.6323702,7.2189803 -0.90684414,7.3841562 0.030550463,7.4378457 0.7828424,7.4520602 1.7147536,7.3280783 2.4318993,7.1144896 3.2874844,6.7225299 3.9545674,6.3851409 4.7037883,5.8267121 5.2760334,5.3418145 5.8732357,4.62638 6.3217077,4.0214829 6.737577,3.1905985 7.0342531,2.4948635 7.2468181,1.5939399 7.3762589,0.84499508 7.3763399,-0.07727322 7.3286614,-0.83974934 7.1161523,-1.7337028 6.8936725,-2.4683914 6.4826365,-3.2865214 6.0944676,-3.95309 5.5070777,-4.651834 4.9740543,-5.2135262 4.2437801,-5.7572842 3.5928171,-6.1815076 2.7580166,-6.5407953 2.0253887,-6.8057599 1.1303256,-6.9685636 0.35874397,-7.0523558 -0.54948223,-6.9902925 -1.3211275,-6.9047112 -2.1935234,-6.6424465 -2.9211724,-6.3699532 -3.711,-5.9116416 -4.3560047,-5.4833117 -5.021153,-4.8557234 -5.5470743,-4.2905316 -6.0512404,-3.5241764 -6.4311137,-2.8557401 -6.7451835,-1.9908347 -6.9600658,-1.2561046 -7.0298967,-1.2707937 -7.0764236,-1.2809107 -7.0767336,-1.2809825 -7.1905193,-0.3489767  Z" id="polygon0" />
<path transform="translate(0.0,0.0)" style="fill:#ffffff;stroke-width:1;stroke:#000000;stroke-opacity:1" d="M 1.3597984,-7.1614618 0.069148518,-7.274416 -1.22185,-7.1621113 -2.4740462,-6.8267665 -3.6493375,-6.2787509 -4.7111845,-5.5349154 -5.6267047,-4.6182914 -6.3704023,-3.5570149 -6.9183006,-2.3820376 -7.2529726,-1.1301739 -7.3666744,0.16028127 -7.2542791,1.4514503 -6.9187064,2.7039213 -6.3707366,3.8790104 -5.6269135,4.940402 -4.7107964,5.8565884 -3.6494231,6.600328 -2.4742558,7.1484065 -1.2218952,7.4836416 0.068829402,7.5958748 1.3596339,7.4836307 2.6117344,7.1480436 3.7865117,6.600493 4.8484039,5.8571739 5.7648511,4.9403768 6.5082469,3.8788509 7.0559468,2.7041559 7.3916202,1.4524246 7.504777,0.16111732 7.3917871,-1.1305076 7.0561981,-2.3828156 6.5079823,-3.5572588 5.7644248,-4.6182117 4.8487964,-5.5349274 3.7869039,-6.2787728 2.6117442,-6.8266611  Z" id="polygon1" />
<path transform="translate(0.0,0.0)" style="fill:#ffffff;stroke-width:1;stroke:#000000;stroke-opacity:1" d="M 1.36084,-7.1661472 1.6647645,-7.0859146 2.6135345,-6.8304749 2.898905,-6.6986866 3.7888963,-6.2823811 4.0470524,-6.1030412 4.851243,-5.5385194 5.0743322,-5.3170781 5.7682714,-4.6214848 5.9495244,-4.3646655 6.5121527,-3.5591333 6.6460519,-3.2747443 7.0602412,-2.3837581 7.142715,-2.0804374 7.3958721,-1.1310605 7.4244275,-0.81802398 7.5088964,0.16088921 7.4826608,0.47412866 7.3958616,1.4528456 7.3156362,1.7567683 7.0602217,2.7055323 6.9284329,2.9909096 6.5121231,3.880918 6.3327837,4.1390738 5.7682638,4.9432659 5.5468206,5.1663551 4.8512278,5.8602939 4.594408,6.0415406 3.7888758,6.6041465 3.5044832,6.7380466 2.6134861,7.1522346 2.3101654,7.234715 1.3607893,7.4878941 1.0477526,7.5164499 0.068836331,7.6009183 -0.24440087,7.5746827 -1.2231106,7.487885 -1.5270338,7.4076524 -2.4758053,7.1522145 -2.761178,7.0204268 -3.6511743,6.6041183 -3.9093292,6.424778 -4.713522,5.8602557 -4.9366097,5.638814 -5.630547,4.9432211 -5.8118005,4.6864004 -6.3744292,3.8808668 -6.5083222,3.5964756 -6.9224892,2.7054853 -7.004971,2.4021628 -7.2581491,1.4527889 -7.2867041,1.1397532 -7.3711729,0.16083775 -7.3449368,-0.15240158 -7.2581396,-1.131111 -7.1779065,-1.4350358 -6.9224701,-2.3838058 -6.790688,-2.6691809 -6.3744006,-3.5591843 -6.195055,-3.8173387 -5.6305094,-4.6215291 -5.4090681,-4.8446188 -4.7134776,-5.5385585 -4.4566579,-5.7198052 -3.651124,-6.2824121 -3.3667352,-6.4163103 -2.4757495,-6.8304939 -2.1724288,-6.9129748 -1.2230521,-7.1661568 -0.91001803,-7.1947131 0.068895072,-7.2791824 0.38213176,-7.2529464  Z" id="polygon2" />
<path transform="translate(0.0,0.0)" style="fill:#ffffff;stroke-width:1;stroke:#000000;stroke-opacity:1" d="M 5.7814231,-0.49114516 5.8219995,0.36806047 5.6805935,1.196045 5.5158978,2.0085185 5.1557078,2.7800772 4.6986275,3.5162785 4.126318,4.1956792 3.4421284,4.7966666 2.6554649,5.2955823 1.7832006,5.6702852 0.84880018,5.9022474 -0.11884638,5.9788785 -1.08741,5.8941131 -2.0503416,5.6390028 -2.971905,5.2182589 -3.8162897,4.64008 -4.5511045,3.9212077 -5.1505828,3.086416 -5.5945954,2.1634567 -5.8704691,1.1831812 -5.9730191,0.17753792 -5.9031367,-0.82199919 -5.6678905,-1.7849234 -5.2806778,-2.6828032 -4.7602215,-3.4907699 -4.1301966,-4.1896195 -3.4162638,-4.7669635 -2.6438339,-5.2176743 -1.8381721,-5.559896 -1.0033157,-5.7140422 -0.18007432,-5.8375349 0.66775525,-5.7642903 1.5111872,-5.5897517 2.3351786,-5.291595 3.1176293,-4.8705587 3.8342888,-4.3345432 4.4627004,-3.7001512 4.9682531,-2.9788246 5.3618355,-2.1860697 5.6343565,-1.348619  Z" id="polygon3" />
<path transform="translate(0.0,0.0)" style="fill:#ffffff;stroke-width:1;stroke:#000000;stroke-opacity:1" d="M 5.6398377,1.1392924 5.7280183,0.1313864 5.6398373,-0.87651974 5.377975,-1.8538013 4.9503875,-2.7707636 4.3700676,-3.5995457 3.6546469,-4.3149648 2.8258643,-4.8952851 1.9089001,-5.3228717 0.93161732,-5.584734 -0.07629022,-5.6729145 -1.0841978,-5.5847344 -2.0614803,-5.3228717 -2.9784441,-4.8952842 -3.8072271,-4.3149643 -4.5226479,-3.5995436 -5.1029682,-2.7707605 -5.5305543,-1.8537968 -5.7924161,-0.8765142 -5.8805976,0.13139324 -5.7924161,1.1393006 -5.5305543,2.1165831 -5.1029673,3.0335467 -4.5226469,3.862329 -3.8072257,4.5777483 -2.9784415,5.1580672 -2.0614779,5.5856528 -1.0841949,5.8475132 -0.076287404,5.9356928 0.93161982,5.8475103 1.9089024,5.5856476 2.8258657,5.1580596 3.6546483,4.5777388 4.370069,3.8623195 4.9503889,3.0335369 5.3779755,2.1165738  Z" id="polygon4" />
</svg>
